<?xml version="1.0" encoding="UTF-8"?>
<svg width="25px" height="24px" viewBox="0 0 25 24" version="1.1" xmlns="http://www.w3.org/2000/svg" xmlns:xlink="http://www.w3.org/1999/xlink">
    <!-- Generator: Sketch 51.2 (57519) - http://www.bohemiancoding.com/sketch -->
    <title>Logo</title>
    <desc>Created with Sketch.</desc>
    <defs></defs>
    <g id="Workplace" stroke="none" stroke-width="1" fill="none" fill-rule="evenodd">
        <g id="Main-page-/-01.1.1-Main-short" transform="translate(-40.000000, -26.000000)" fill="#FFFFFF" fill-rule="nonzero">
            <g id="Header">
                <g id="Logo" transform="translate(24.000000, 14.000000)">
                    <g transform="translate(16.000000, 12.000000)" id="Shape">
                        <path d="M18.5500797,11.6308422 C15.8487658,11.6353497 13.4361342,13.2524373 12.5037011,15.6834807 C11.4260597,12.8693192 8.39867239,11.2015584 5.32051363,11.7263265 C2.24235486,12.2510945 4.0276972e-16,14.817247 0,17.8151261 C-4.0276972e-16,20.8130051 2.24235486,23.3791576 5.32051363,23.9039256 C8.39867239,24.4286937 11.4260597,22.7609329 12.5037011,19.9467714 C13.6323904,22.8877225 16.8777004,24.5534075 20.0558336,23.8229723 C23.2339668,23.0925372 25.339166,20.1971367 24.9548242,17.0851111 C24.5704825,13.9730856 21.8182292,11.6292716 18.5500797,11.6308422 Z M22.2673932,20.8330566 C21.997814,20.5725635 21.7645039,20.2797307 21.5732689,19.9618456 L22.30609,19.7276158 L22.0513359,18.9932321 L21.2322532,19.2549046 C21.1057325,18.9144438 21.0244736,18.5600479 20.9903981,18.2000977 L21.7748149,18.2000977 L21.7748149,17.4286083 L20.9875764,17.4286083 C21.0208234,17.0684099 21.1021046,16.7137866 21.2294316,16.3734149 L22.0497236,16.6354739 L22.3044777,15.9010902 L21.5732689,15.66802 C21.7649715,15.3502445 21.9986835,15.0575474 22.2686025,14.7971955 L22.8111642,14.2769427 C24.6557128,16.3041718 24.6557128,19.3260803 22.8111642,21.3533094 L22.2673932,20.8330566 Z M8.47278212,16.5914109 L6.86041451,15.6637683 L6.86041451,13.9499487 L7.26350641,13.9499487 C7.39825138,13.949968 7.52409542,13.8854271 7.59887888,13.7779483 L8.33532778,12.7185031 C9.06060209,12.9651815 9.72551976,13.3516481 10.2891142,13.8540923 L9.72478557,14.9363419 C9.66810223,15.0451122 9.66810223,15.1731185 9.72478557,15.2818888 L9.96099742,15.7348876 L8.47278212,16.5914109 Z M7.36266702,19.361197 L5.5519782,19.361197 L4.91428681,17.2210483 L6.45732261,16.333217 L8.00035841,17.2222078 L7.36266702,19.361197 Z M4.4418631,16.5914109 L2.95405088,15.7352741 L3.1922782,15.2822753 C3.24896154,15.1735051 3.24896154,15.0454987 3.1922782,14.9367284 L2.62794954,13.8544788 C3.191544,13.3520346 3.85646168,12.965568 4.58173599,12.7188897 L5.31818489,13.7783348 C5.39258322,13.8849859 5.51732743,13.9492826 5.6511388,13.9499487 L6.05423071,13.9499487 L6.05423071,15.6637683 L4.4418631,16.5914109 Z M2.37883874,15.1095019 L1.77420089,16.2690551 L1.0518602,16.2690551 C1.25760043,15.6105738 1.5928173,14.9959142 2.03943536,14.4582195 L2.37883874,15.1095019 Z M10.5358065,15.1095019 L10.8752099,14.4582195 C11.3218279,14.9959142 11.6570448,15.6105738 11.862785,16.2690551 L11.1404443,16.2690551 L10.5358065,15.1095019 Z M7.51664813,12.5028262 L7.04785225,13.1769132 L5.86679297,13.1769132 L5.39799709,12.5028262 C6.09751264,12.3708945 6.81713257,12.3708945 7.51664813,12.5028262 Z M0.878530679,17.0420906 L2.02331168,17.0420906 C2.17609398,17.0421588 2.31578526,16.9593957 2.38407893,16.8283463 L2.59247745,16.4286869 L4.0980257,17.2952597 L4.80464581,19.6704112 L3.86141076,20.8763465 L3.47444253,20.5980538 C3.37728071,20.5281835 3.25244425,20.504044 3.13463606,20.5323458 L1.79153384,20.854315 C0.990046983,19.7422585 0.66332235,18.3780271 0.878530679,17.0420906 Z M2.35223467,21.5168064 L3.14431026,21.3270262 L4.4418631,22.2600801 L4.4418631,22.8634342 C3.6485861,22.5709266 2.93432269,22.1106309 2.35223467,21.5168064 Z M5.2480469,23.0980505 L5.2480469,22.0668212 C5.2480469,21.9451619 5.18831104,21.8306026 5.08681014,21.757607 L4.5063578,21.3401678 L5.44959285,20.1342325 L7.46505236,20.1342325 L8.40828742,21.3401678 L7.82783508,21.757607 C7.72633418,21.8306026 7.66659832,21.9451619 7.66659832,22.0668212 L7.66659832,23.0980505 C6.87028825,23.2691518 6.04435696,23.2691518 5.2480469,23.0980505 Z M8.47278212,22.8634342 L8.47278212,22.2600801 L9.77033495,21.3270262 L10.5624105,21.5168064 C9.98032253,22.1106309 9.26605912,22.5709266 8.47278212,22.8634342 Z M11.1231114,20.853542 L9.78000916,20.5315727 C9.66219049,20.5037214 9.53755624,20.5278218 9.44020269,20.5972807 L9.05323446,20.8755735 L8.10999941,19.6704112 L8.8174257,17.2960327 L10.322974,16.42946 L10.5313725,16.8291193 C10.5997608,16.9596196 10.7390209,17.0420129 10.8913335,17.0420906 L12.0361145,17.0420906 C12.2513229,18.3780271 11.9245982,19.7422585 11.1231114,20.854315 L11.1231114,20.853542 Z M14.2902045,14.2761696 L14.8327662,14.7964225 C15.1024012,15.0571546 15.3357135,15.35025 15.5268904,15.6684065 L14.7940693,15.9026363 L15.0488234,16.63702 L15.8679062,16.3753475 C15.9944269,16.7158083 16.0756858,17.0702042 16.1097613,17.4301544 L15.3253445,17.4301544 L15.3253445,18.2031899 L16.1125829,18.2031899 C16.079336,18.5633883 15.9980547,18.9180116 15.8707278,19.2583833 L15.0504358,18.9963243 L14.7956817,19.730708 L15.5289059,19.9653242 C15.3370985,20.2830326 15.1033963,20.5757174 14.8335723,20.8361487 L14.2910106,21.3564016 C12.446462,19.3291725 12.446462,16.3072639 14.2910106,14.2800348 L14.2902045,14.2761696 Z M14.8601764,21.8990725 L15.4027381,21.3788196 C15.7628064,21.034127 16.0684813,20.640888 16.310098,20.211536 L17.2134269,20.4998783 L17.468181,19.7654946 L16.6329746,19.4984108 C16.7866774,19.0799588 16.8824896,18.6439864 16.9179606,18.2016438 L17.7438959,18.2016438 L17.7438959,17.4286083 L16.9187668,17.4286083 C16.8846205,16.9852747 16.7890539,16.5482759 16.634587,16.1291357 L17.468181,15.8624384 L17.2134269,15.1280547 L16.3109042,15.416397 C16.0687978,14.9871435 15.7628743,14.593934 15.4027381,14.2491134 L14.8601764,13.7288605 C16.9743346,11.9601552 20.1258248,11.9601552 22.239983,13.7288605 L21.6974213,14.2491134 C21.3373529,14.593806 21.0316781,14.987045 20.7900614,15.416397 L19.8867324,15.1280547 L19.6319783,15.8624384 L20.4671848,16.1295222 C20.3132754,16.5487168 20.2174604,16.9854818 20.1821988,17.4286083 L19.3562635,17.4286083 L19.3562635,18.2016438 L20.1813926,18.2016438 C20.2155388,18.6449774 20.3111055,19.0819762 20.4655724,19.5011164 L19.6319783,19.7678137 L19.8867324,20.5021974 L20.7892552,20.2138551 C21.0313615,20.6431086 21.3372851,21.0363181 21.6974213,21.3811387 L22.239983,21.9013916 C20.1258248,23.6700969 16.9743346,23.6700969 14.8601764,21.9013916 L14.8601764,21.8990725 Z"></path>
                        <path d="M12.4646893,12.3697479 C16.0334784,12.3697479 18.9265537,9.60068551 18.9265537,6.18487395 C18.9265537,2.76906239 16.0334784,1.71664737e-16 12.4646893,0 C8.8959001,-2.14580921e-16 6.00282486,2.76906239 6.00282486,6.18487395 C6.00705319,9.59900775 8.897653,12.3657008 12.4646893,12.3697479 Z M12.0608227,11.5769244 C10.9722854,11.5030238 9.9298922,11.126884 9.06130606,10.4945714 L9.75070621,10.0550588 C10.4395403,9.61511542 11.2351143,9.3523279 12.0608227,9.292 L12.0608227,11.5769244 Z M12.8685558,9.292 C13.6944125,9.35279052 14.4899979,9.61611431 15.1786723,10.056605 L15.8680725,10.4961176 C14.999301,11.1278769 13.9569236,11.5034736 12.8685558,11.5769244 L12.8685558,9.292 Z M12.0608227,8.51889076 C11.0751591,8.58083529 10.1238603,8.88985251 9.30241437,9.41492437 L8.43046654,9.97117647 C7.49167829,9.056183 6.92460592,7.85072479 6.8311551,6.57142857 L12.0608227,6.57142857 L12.0608227,8.51889076 Z M16.498912,9.97117647 L15.6269642,9.41337815 C14.8055182,8.8883063 13.8542195,8.57928907 12.8685558,8.51734454 L12.8685558,6.57142857 L18.0982234,6.57142857 C18.0043964,7.85018148 17.4373514,9.05503328 16.498912,9.96963025 L16.498912,9.97117647 Z M18.0982234,5.79831933 L12.8685558,5.79831933 L12.8685558,3.85240336 C13.8542195,3.79045882 14.8055182,3.4814416 15.6269642,2.95636975 L16.498912,2.40011765 C17.4373514,3.31471462 18.0043964,4.51956642 18.0982234,5.79831933 Z M12.8685558,0.792823529 C13.9570931,0.866724141 14.9994863,1.24286385 15.8680725,1.87517647 L15.1786723,2.31314286 C14.4899979,2.75363359 13.6944125,3.01695737 12.8685558,3.0777479 L12.8685558,0.792823529 Z M12.0608227,3.0777479 C11.234966,3.01695737 10.4393806,2.75363359 9.75070621,2.31314286 L9.06130606,1.87363025 C9.93007755,1.24187099 10.972455,0.866274308 12.0608227,0.792823529 L12.0608227,3.0777479 Z M8.43046654,2.40011765 L9.30241437,2.95636975 C10.1238603,3.4814416 11.0751591,3.79045882 12.0608227,3.85240336 L12.0608227,5.79831933 L6.8311551,5.79831933 C6.9249821,4.51956642 7.4920271,3.31471462 8.43046654,2.40011765 Z"></path>
                    </g>
                </g>
            </g>
        </g>
    </g>
</svg>